<svg width="23" height="23" viewBox="0 0 23 23" fill="none" xmlns="http://www.w3.org/2000/svg">
<g clip-path="url(#clip0_101_3496)">
<path d="M15.5499 6.10034V16.4503C15.5499 18.4393 13.9389 20.0503 11.9499 20.0503C9.96088 20.0503 8.34988 18.4393 8.34988 16.4503V5.20034C8.34988 3.95834 9.35788 2.95034 10.5999 2.95034C11.8419 2.95034 12.8499 3.95834 12.8499 5.20034V14.6503C12.8499 15.1453 12.4449 15.5503 11.9499 15.5503C11.4549 15.5503 11.0499 15.1453 11.0499 14.6503V6.10034H9.69988V14.6503C9.69988 15.8923 10.7079 16.9003 11.9499 16.9003C13.1919 16.9003 14.1999 15.8923 14.1999 14.6503V5.20034C14.1999 3.21134 12.5889 1.60034 10.5999 1.60034C8.61088 1.60034 6.99988 3.21134 6.99988 5.20034V16.4503C6.99988 19.1863 9.21388 21.4003 11.9499 21.4003C14.6859 21.4003 16.8999 19.1863 16.8999 16.4503V6.10034H15.5499Z" fill="#224F58"/>
</g>
<defs>
<clipPath id="clip0_101_3496">
<rect width="21.6" height="21.6" fill="white" transform="translate(0.700012 0.700012)"/>
</clipPath>
</defs>
</svg>
