<svg xmlns="http://www.w3.org/2000/svg" xmlns:xlink="http://www.w3.org/1999/xlink" viewBox="0 0 414.2 98.06"><defs><style>.cls-1{font-size:23.12px;font-family:Poppins-Thin, Poppins;font-weight:200;}.cls-2{fill:url(#Degradado_sin_nombre_5);}.cls-3{fill:url(#Degradado_sin_nombre_6);}.cls-4{fill:url(#Degradado_sin_nombre_241);}.cls-5{fill:url(#Degradado_sin_nombre_97);}</style><linearGradient id="Degradado_sin_nombre_5" x1="-64.58" y1="-377.09" x2="-76.69" y2="-375.23" gradientTransform="matrix(0.99, 0.14, -0.14, 0.99, 65.47, 436.58)" gradientUnits="userSpaceOnUse"><stop offset="0" stop-color="#999797"/><stop offset="0.01" stop-color="#9c9a9a"/><stop offset="0.23" stop-color="#c0bebe"/><stop offset="0.26" stop-color="#c5c4c4"/><stop offset="0.44" stop-color="#e5e4e4"/><stop offset="0.84" stop-color="#cbcbcb"/><stop offset="1" stop-color="#ccc"/></linearGradient><linearGradient id="Degradado_sin_nombre_6" x1="-54.57" y1="1696.51" x2="-48.82" y2="1688.44" gradientTransform="translate(-774.99 -1455.75) rotate(-30.87)" gradientUnits="userSpaceOnUse"><stop offset="0" stop-color="#999797"/><stop offset="0.01" stop-color="#9c9a9a"/><stop offset="0.23" stop-color="#c0bebe"/><stop offset="0.44" stop-color="#dcdbdb"/><stop offset="0.84" stop-color="#cbcbcb"/><stop offset="1" stop-color="#ccc"/></linearGradient><radialGradient id="Degradado_sin_nombre_241" cx="-34.02" cy="1703.61" r="5.54" gradientTransform="matrix(1, 0.07, -0.14, 1.93, 346.09, -3268.02)" gradientUnits="userSpaceOnUse"><stop offset="0.01" stop-color="#a09e9e" stop-opacity="0.6"/><stop offset="0.68" stop-color="#7b7a7a"/><stop offset="0.96" stop-color="#605f5f"/></radialGradient><linearGradient id="Degradado_sin_nombre_97" x1="-67.81" y1="1677.52" x2="-68.28" y2="1676.02" gradientTransform="translate(-774.99 -1455.75) rotate(-30.87)" gradientUnits="userSpaceOnUse"><stop offset="0.01" stop-color="#c0bebe" stop-opacity="0.2"/><stop offset="0.34" stop-color="#c0bebe" stop-opacity="0.49"/><stop offset="0.79" stop-color="#c0bebe" stop-opacity="0.86"/><stop offset="1" stop-color="#c0bebe"/></linearGradient></defs><title>logo</title><g id="Layer_2" data-name="Layer 2"><g id="Layer_1-2" data-name="Layer 1"><path d="M118.18,2.92h27.69a1.62,1.62,0,0,0,1.75-1.75V0h2.57V1.69c0,2.34-1.28,4.5-4,4.5H134.71V40.26c0,2.74-1.52,3.56-3.86,3.56h-1.4V6.19h-11A1.66,1.66,0,0,0,116.71,8V9.11H114.2V7.48C114.2,5.14,115.49,2.92,118.18,2.92Z"/><path d="M165.21,14a11.57,11.57,0,0,1,9.34,4.91v-.76c.06-2.75,1.52-3.56,3.92-3.56h1.11l-.06,24.89a1.62,1.62,0,0,0,1.75,1.75h1.17v2.57h-3.33c-2.34,0-4.56-1.29-4.56-4V39.5a11.58,11.58,0,0,1-9.34,4.9c-7.66,0-13.85-6.6-13.85-15.19S157.61,14,165.21,14Zm1,27.05a8.41,8.41,0,0,0,8.35-8.76V26.12a8.45,8.45,0,0,0-8.35-8.77c-4.09,0-9.76,3.68-9.76,11.86S162.17,41.07,166.26,41.07Z"/><path d="M193.36,39.5v.76c0,2.74-1.51,3.56-3.91,3.56h-1V4.32a1.62,1.62,0,0,0-1.75-1.75h-1.17V0h3.33c2.33,0,4.55,1.29,4.55,4V19.22a10.62,10.62,0,0,1,9.35-5.2c7.66,0,13.91,6.6,13.91,15.19S210.37,44.4,202.71,44.4A11.7,11.7,0,0,1,193.36,39.5Zm18.12-10.29c0-8.18-5.67-11.86-9.76-11.86a8.42,8.42,0,0,0-8.36,8.77v6.19a8.38,8.38,0,0,0,8.36,8.76C205.81,41.07,211.42,37.39,211.48,29.21Z"/><path d="M222.28,40.14c-.7-.88-1.28-2,.47-2.92l1.29-.7c1.34,2.63,5.49,4.67,10.05,4.67,5.31,0,8.47-2,8.47-4.85.11-7.3-19.46-3.62-19.63-14.55-.06-4.61,4.5-7.88,11.16-7.83,4.67.06,8.58,1.29,11,4.09.7.88,1.28,2.11-.47,3l-1.28.65c-1.41-2.57-4.27-4.44-8.59-4.5-4.5-.06-6.9,2.22-6.9,4.38,0,7,19.52,3.56,19.58,14.31.05,4.39-4,8.48-13.09,8.53C229.41,44.4,224.74,43.06,222.28,40.14Z"/><path d="M259.5,4V19.05a12.55,12.55,0,0,1,9.81-5c6.72,0,12.27,3.92,12.27,14.73V39.5a1.63,1.63,0,0,0,1.76,1.75h1.17v2.57h-3.69c-2.33,0-4.2-1.29-4.2-4V28.34c0-7.95-3.62-11-7.83-11a9.14,9.14,0,0,0-9.29,9.35V40.26c0,2.74-1.23,3.56-3.57,3.56h-1.4V4.32a1.62,1.62,0,0,0-1.75-1.75h-1.17V0H255C257.28,0,259.5,1.29,259.5,4Z"/><path d="M303.67,14a14.73,14.73,0,0,1,15,15.19c-.06,9-6.72,15.19-15,15.19a14.73,14.73,0,0,1-15-15.19C288.65,20.22,295.37,14,303.67,14Zm-9.88,15.19c0,8.77,5.67,12,9.88,12,4,0,9.81-3.21,9.81-12s-5.72-12-9.81-12S293.79,20.45,293.79,29.21Z"/><path d="M339,14a14.73,14.73,0,0,1,15,15.19c-.06,9-6.72,15.19-15,15.19a14.73,14.73,0,0,1-15-15.19C323.94,20.22,330.66,14,339,14Zm-9.87,15.19c0,8.77,5.67,12,9.87,12,4,0,9.82-3.21,9.82-12s-5.73-12-9.82-12S329.08,20.45,329.08,29.21Z"/><path d="M380,15.19c1.16.82.93,1.7.17,2.86l-1.46,2.17A6,6,0,0,0,374,18c-4.21,0-8,3.27-8,9.05V40.26c0,2.74-1.22,3.56-3.56,3.56H361V18.93a1.63,1.63,0,0,0-1.76-1.75h-1.16V14.61h3.38c2.28,0,4.5,1.28,4.5,4v.7a11,11,0,0,1,9.35-5.2A8.17,8.17,0,0,1,380,15.19Z"/><path d="M397,14a11.57,11.57,0,0,1,9.34,4.91v-.76c.06-2.75,1.52-3.56,3.92-3.56h1.11l-.06,24.89A1.62,1.62,0,0,0,413,41.25h1.17v2.57h-3.33c-2.33,0-4.56-1.29-4.56-4V39.5A11.58,11.58,0,0,1,397,44.4c-7.66,0-13.85-6.6-13.85-15.19S389.37,14,397,14Zm1,27.05a8.41,8.41,0,0,0,8.35-8.76V26.12A8.45,8.45,0,0,0,398,17.35c-4.09,0-9.76,3.68-9.76,11.86S393.93,41.07,398,41.07Z"/><text class="cls-1" transform="translate(114.95 85.5)">Bright Your Future</text><rect y="0.03" width="98" height="98" rx="14.76"/><path class="cls-2" d="M42.89,28.91c.26-1.32,1.6-3.46,5.72-3.18s5.29,1.39,5.86,2.33,2.1,48.16,1.75,50.07-4.51,3.51-5.64,4.29-3.66-.21-5.07-1.27-3.41-3.08-3.72-5.25S42.59,30.43,42.89,28.91Z"/><path class="cls-3" d="M74.64,23.72c0,1.26-1.75,5.93-4.23,6.33S28,26.76,27.57,26.48s-4.21-3.86-4.15-5.12,1.58-1.89,3-3.57,2.54-2.33,3.84-2.43,39.25,3,41.47,3.3S74.58,22.27,74.64,23.72Z"/><path class="cls-4" d="M70.41,30.05c2.48-.4,4.28-5.07,4.23-6.33-.06-1.45-.67-4.75-2.89-5.06,0,0-1.31.7-2,6.19C69.3,29.06,70.41,30.05,70.41,30.05Z"/><path class="cls-5" d="M30.28,15.36c-1.31.09-2.42.76-3.88,2.45s-3,2.34-3,3.61c0,0,1,1.35,3.4-1.57a13.82,13.82,0,0,0,1.79-3.14A5.09,5.09,0,0,1,30.28,15.36Z"/></g></g></svg>